:version 1.10
:name ASF
:units
  mass 1
  length 1
  angle deg
:documentation
  ASF file generated by Kaydara
:root
  axis xyz
  order  tx ty tz rx ry rz
  position 0 0 0
  orientation 0 0 0
:bonedata
  begin
    id 1
    name RightUpLegDummy
    direction -0.718183 -0.695806 0.00816078
    length 4.904
    axis 0 0 0 xyz
  end
  begin
    id 2
    name RightUpLeg
    direction 3.53373e-006 -0.995788 0.0916898
    length 17.4976
    axis -3.49089 -0.000906625 0.000286804 xyz
    dof rx ry rz
  end
  begin
    id 3
    name RightLeg
    direction 0.00371092 -0.995096 -0.0988419
    length 16.5821
    axis 3.68512 0.0193738 -0.131023 xyz
    dof rx ry rz
  end
  begin
    id 4
    name RightFoot
    direction 0.00079151 -0.46099 0.887405
    length 3.77069
    axis 4.81691e-005 -0.120479 -0.188788 xyz
    dof rx ry rz
  end
  begin
    id 5
    name RightToes
    direction 0 0 0
    length 0
    axis 0 0 0 xyz
    dof rx ry rz
  end
  begin
    id 6
    name SpineDummy
    direction 8.3039e-015 1 4.57515e-016
    length 4.6813
    axis 0 0 0 xyz
  end
  begin
    id 7
    name Spine
    direction -3.15643e-008 0.999988 0.00495137
    length 10.1015
    axis -0.001389 0.000121418 2.40972e-006 xyz
    dof rx ry rz
  end
  begin
    id 8
    name Spine1
    direction 0 0 0
    length 0
    axis -0.001389 0.000121451 1.30017e-006 xyz
    dof rx ry rz
  end
  begin
    id 9
    name HEadDummy
    direction -1.99912e-008 0.999999 0.00127422
    length 3.43865
    axis -0.001389 0.000121451 1.30017e-006 xyz
  end
  begin
    id 10
    name HEad
    direction 0 0 0
    length 0
    axis 0 0 0 xyz
    dof rx ry rz
  end
  begin
    id 11
    name LeftShoulder1Dummy
    direction 0.998891 -0.0402509 -0.0244456
    length 3.5433
    axis -0.001389 0.000121451 1.30017e-006 xyz
  end
  begin
    id 12
    name LeftShoulder1
    direction 0.99951 -0.000327763 0.0313091
    length 4.05031
    axis -0.001389 0.000121451 1.30017e-006 xyz
    dof rx ry rz
  end
  begin
    id 13
    name LeftArm
    direction 0.998561 -0.00100056 -0.0536182
    length 10.3537
    axis -23.1894 0.134784 0.967509 xyz
    dof rx ry rz
  end
  begin
    id 14
    name LeftForeArm
    direction 0.998903 0.00866432 0.046012
    length 8.70632
    axis -9.91835 -0.06569 -0.177794 xyz
    dof rx ry rz
  end
  begin
    id 15
    name LeftHand
    direction 0 0 0
    length 0
    axis 0 0 0 xyz
    dof rx ry rz
  end
  begin
    id 16
    name RightShoulderDummy
    direction -0.998891 -0.0402509 -0.0244414
    length 3.5433
    axis -0.001389 0.000121451 1.30017e-006 xyz
  end
  begin
    id 17
    name RightShoulder
    direction -0.99951 -0.000327807 0.0313133
    length 4.05031
    axis 0.215806 0.000203643 -0.0068026 xyz
    dof rx ry rz
  end
  begin
    id 18
    name RightArm
    direction -0.998573 -0.000999564 -0.053403
    length 10.3947
    axis -23.2009 -0.134239 -0.964101 xyz
    dof rx ry rz
  end
  begin
    id 19
    name RightForeArm
    direction -0.998898 0.00868028 0.0461306
    length 8.68355
    axis -9.92322 0.0658061 0.178868 xyz
    dof rx ry rz
  end
  begin
    id 20
    name RightHand
    direction 0 0 0
    length 0
    axis 0 0 0 xyz
    dof rx ry rz
  end
  begin
    id 21
    name LeftUpLegDummy
    direction 0.718183 -0.695806 0.00816078
    length 4.904
    axis 0 0 0 xyz
  end
  begin
    id 22
    name LeftUpLeg
    direction -6.81752e-006 -0.995793 0.0916337
    length 17.4976
    axis -3.48766 0.00143442 -0.000524262 xyz
    dof rx ry rz
  end
  begin
    id 23
    name LeftLeg
    direction -0.00601358 -0.995091 -0.0987824
    length 16.5821
    axis 3.68178 -0.00654042 -0.000285133 xyz
    dof rx ry rz
  end
  begin
    id 24
    name LeftFoot
    direction -0.00417578 -0.460984 0.887399
    length 3.77069
    axis 1.87233e-006 4.66016e-005 -8.6538e-006 xyz
    dof rx ry rz
  end
  begin
    id 25
    name LeftToes
    direction 0 0 0
    length 0
    axis 0 0 0 xyz
    dof rx ry rz
  end
:hierarchy
  begin
    root RightUpLegDummy SpineDummy LeftUpLegDummy
    RightUpLegDummy RightUpLeg
    RightUpLeg RightLeg
    RightLeg RightFoot
    RightFoot RightToes
    SpineDummy Spine
    Spine Spine1
    Spine1 HEadDummy LeftShoulder1Dummy RightShoulderDummy
    HEadDummy HEad
    LeftShoulder1Dummy LeftShoulder1
    LeftShoulder1 LeftArm
    LeftArm LeftForeArm
    LeftForeArm LeftHand
    RightShoulderDummy RightShoulder
    RightShoulder RightArm
    RightArm RightForeArm
    RightForeArm RightHand
    LeftUpLegDummy LeftUpLeg
    LeftUpLeg LeftLeg
    LeftLeg LeftFoot
    LeftFoot LeftToes
  end

:SAMPLES-PER-SECOND 30
:FULLY-SPECIFIED
:DEGREES
96
root  36.3745 39.7998 -1.20725 -155.463 -87.9453 154.232
RightUpLeg  -14.318 -8.24098 -6.15128
RightLeg  -1.26234 -12.0952 5.17267
RightFoot  2.40366 -0.883986 7.47377
RightToes  0.000481921 0.542163 -0.142578
Spine  -0.626672 -3.60776 -7.53426
Spine1  13.4065 -6.86474 9.62574
HEad  28.5398 3.44662 7.77319
LeftShoulder1  9.64308 -13.9939 -48.1101
LeftArm  -5.51685 -11.3945 -23.0105
LeftForeArm  39.1551 -37.9553 -6.34441
LeftHand  -0.25398 0.0180481 5.50724
RightShoulder  4.61715 8.01318 34.1399
RightArm  -4.76224 -10.8501 37.8292
RightForeArm  3.32396 15.5607 6.10852
RightHand  -1.57423 5.3447 -17.2771
LeftUpLeg  8.5816 5.46676 -1.83319
LeftLeg  6.39198 18.995 -3.91826
LeftFoot  -12.3842 0.0816763 0.774758
LeftToes  1.06246e-005 4.65868e-005 -8.65513e-006
97
root  35.5405 39.7484 -1.39744 -116.961 -88.5879 115.627
RightUpLeg  -14.1225 -8.54263 -6.24871
RightLeg  -0.137265 -12.2905 4.95312
RightFoot  5.04107 -0.592544 4.42587
RightToes  0.000481921 0.542163 -0.142578
Spine  -1.19499 -3.72068 -7.67938
Spine1  13.9994 -7.22056 10.2774
HEad  28.0451 0.97072 9.60257
LeftShoulder1  9.71036 -14.02 -48.3763
LeftArm  -4.41429 -9.49155 -23.501
LeftForeArm  42.2502 -41.1027 -7.05384
LeftHand  -0.25398 0.0180481 5.50724
RightShoulder  4.62869 7.97108 34.3848
RightArm  -7.6117 -12.4225 37.653
RightForeArm  6.56453 12.9896 6.34875
RightHand  -1.50842 5.07503 -16.9855
LeftUpLeg  10.0955 5.47148 -1.57589
LeftLeg  6.28986 17.3469 -3.99395
LeftFoot  -12.5233 0.0754509 0.0204446
LeftToes  1.06246e-005 4.65868e-005 -8.65513e-006
98
root  34.66 39.7261 -1.59894 -62.6577 -88.5754 61.1009
RightUpLeg  -13.9689 -9.07288 -6.18251
RightLeg  2.11401 -11.8308 4.77698
RightFoot  8.44779 -0.00752015 0.361924
RightToes  0.000481921 0.542163 -0.142578
Spine  -1.60482 -3.79153 -6.83296
Spine1  14.3646 -7.36967 10.3693
HEad  27.6107 -1.53119 10.8745
LeftShoulder1  9.82481 -14.0153 -48.9634
LeftArm  -3.08355 -7.15218 -23.7008
LeftForeArm  44.6035 -43.74 -7.71975
LeftHand  -0.25398 0.0180481 5.50724
RightShoulder  4.64049 7.88523 34.7869
RightArm  -9.5014 -14.1682 37.3166
RightForeArm  8.80043 10.9173 6.33086
RightHand  -1.45334 4.80175 -16.8024
LeftUpLeg  11.7355 5.56419 -0.89083
LeftLeg  6.31262 15.6584 -3.86456
LeftFoot  -12.5598 0.0645291 -0.976925
LeftToes  1.06246e-005 4.65868e-005 -8.65513e-006
99
root  33.7387 39.7439 -1.79105 -29.1769 -88.2429 27.3476
RightUpLeg  -13.7006 -9.85044 -5.70737
RightLeg  4.72879 -10.8124 4.58606
RightFoot  9.70155 0.522817 -2.4843
RightToes  0.000481921 0.542163 -0.142578
Spine  -1.97518 -3.75571 -4.89754
Spine1  14.6062 -7.26179 9.91732
HEad  27.4278 -3.63006 11.2887
LeftShoulder1  9.94509 -13.9523 -49.7413
LeftArm  -2.03692 -4.26883 -23.9616
LeftForeArm  46.0561 -45.3582 -8.15842
LeftHand  -0.25398 0.0180481 5.50724
RightShoulder  4.66611 7.80546 35.2916
RightArm  -10.6633 -15.4324 36.7299
RightForeArm  10.9666 8.92376 6.11541
RightHand  -1.4189 4.68442 -16.5983
LeftUpLeg  13.2704 5.81631 0.243701
LeftLeg  6.69804 14.3442 -3.44971
LeftFoot  -12.427 0.0501075 -2.61053
LeftToes  1.06246e-005 4.65868e-005 -8.65513e-006
100
root  32.7991 39.8271 -2.0065 -11.6749 -88.0872 9.65696
RightUpLeg  -13.0962 -11.0541 -4.84489
RightLeg  6.96577 -9.6797 4.1201
RightFoot  8.17672 0.644708 -3.41323
RightToes  0.000481921 0.542163 -0.142578
Spine  -2.47441 -3.60064 -3.05319
Spine1  14.8762 -7.10866 9.75318
HEad  27.6715 -4.97686 10.9611
LeftShoulder1  10.0117 -13.8606 -50.3346
LeftArm  -1.66899 -0.696515 -24.8351
LeftForeArm  46.6076 -45.4148 -8.1454
LeftHand  -0.25398 0.0180481 5.50724
RightShoulder  4.71304 7.79711 35.7283
RightArm  -11.2201 -16.0344 36.0043
RightForeArm  13.0355 7.07213 5.72574
RightHand  -1.38231 4.59213 -16.3268
LeftUpLeg  14.5354 6.43138 1.65393
LeftLeg  7.35265 13.0822 -3.03551
LeftFoot  -11.4365 0.0661196 -4.66657
LeftToes  1.06246e-005 4.65868e-005 -8.65513e-006
101
root  31.8681 39.9645 -2.28989 -7.49722 -87.7033 5.43357
RightUpLeg  -12.0173 -11.5546 -4.39475
RightLeg  8.24849 -9.67586 3.65255
RightFoot  5.87263 0.576491 -3.54022
RightToes  0.000481921 0.542163 -0.142578
Spine  -3.01008 -3.47935 -2.57372
Spine1  14.9885 -7.19128 10.5378
HEad  28.3495 -5.85581 10.2746
LeftShoulder1  9.98363 -13.7711 -50.4516
LeftArm  -1.72576 3.36952 -26.3785
LeftForeArm  46.0398 -43.5773 -7.58677
LeftHand  -0.25398 0.0180481 5.50724
RightShoulder  4.75105 7.81392 35.9963
RightArm  -11.552 -16.4565 35.3907
RightForeArm  13.9163 6.0125 5.4169
RightHand  -1.37026 4.47273 -16.375
LeftUpLeg  15.3705 7.91272 3.18093
LeftLeg  8.39348 10.7196 -2.71603
LeftFoot  -9.43896 0.169774 -6.75159
LeftToes  1.06246e-005 4.65868e-005 -8.65513e-006
102
root  30.9758 40.106 -2.62094 -10.9891 -86.7439 8.99457
RightUpLeg  -10.6915 -11.2781 -4.58504
RightLeg  8.81564 -10.756 3.50519
RightFoot  4.18 0.554163 -3.85453
RightToes  0.000481921 0.542163 -0.142578
Spine  -3.39256 -3.56009 -2.99095
Spine1  14.7867 -7.45815 11.676
HEad  29.2121 -6.7057 9.55824
LeftShoulder1  9.87208 -13.6834 -50.1451
LeftArm  -1.35442 7.25251 -27.9657
LeftForeArm  44.167 -39.9608 -6.61777
LeftHand  -0.25398 0.0180481 5.50724
RightShoulder  4.73244 7.73634 36.1172
RightArm  -11.8867 -17.0702 35.1584
RightForeArm  12.8641 6.25853 5.38577
RightHand  -1.4134 4.44218 -16.9202
LeftUpLeg  15.5109 11.0047 4.88485
LeftLeg  10.3345 6.23367 -2.01824
LeftFoot  -7.15809 0.3618 -8.73053
LeftToes  1.06246e-005 4.65868e-005 -8.65513e-006
103
root  30.1478 40.1819 -2.93034 -10.4804 -85.4637 8.66142
RightUpLeg  -9.66235 -11.1197 -4.79474
RightLeg  9.59487 -11.9719 3.49896
RightFoot  2.52893 0.513886 -4.07434
RightToes  0.000481921 0.542163 -0.142578
Spine  -3.67323 -3.77084 -2.66105
Spine1  14.5812 -7.56165 12.0294
HEad  29.8514 -7.53525 8.93356
LeftShoulder1  9.76334 -13.6091 -49.8103
LeftArm  0.157903 10.252 -28.8753
LeftForeArm  41.4105 -35.0902 -5.47363
LeftHand  -0.25398 0.0180481 5.50724
RightShoulder  4.65318 7.54634 36.123
RightArm  -12.0663 -17.5731 35.359
RightForeArm  10.8057 7.53996 5.60472
RightHand  -1.4952 4.64989 -17.5164
LeftUpLeg  14.3562 14.5853 6.45426
LeftLeg  14.0589 1.24887 -0.632753
LeftFoot  -5.23661 0.587494 -10.4143
LeftToes  1.06246e-005 4.65868e-005 -8.65513e-006
104
root  29.3955 40.182 -3.18628 -6.94415 -84.3603 5.39375
RightUpLeg  -9.04413 -11.2183 -4.65689
RightLeg  10.7677 -12.9852 3.42313
RightFoot  0.471929 0.398241 -3.80803
RightToes  0.000481921 0.542163 -0.142578
Spine  -4.03577 -3.84963 -1.08263
Spine1  14.7084 -7.28609 11.3233
HEad  29.9557 -8.21889 8.39221
LeftShoulder1  9.76122 -13.5864 -49.8649
LeftArm  2.59087 12.2527 -28.9302
LeftForeArm  38.6407 -29.7114 -4.32377
LeftHand  -0.25398 0.0180481 5.50724
RightShoulder  4.57638 7.38382 36.0479
RightArm  -11.5904 -17.3894 35.6608
RightForeArm  9.14721 9.12529 5.94882
RightHand  -1.58149 5.09778 -17.7431
LeftUpLeg  11.707 14.6122 6.94495
LeftLeg  19.4338 0.370632 0.645141
LeftFoot  -3.17462 0.818861 -11.1974
LeftToes  1.06246e-005 4.65868e-005 -8.65513e-006
105
root  28.734 40.116 -3.40516 -2.46948 -83.5233 1.19222
RightUpLeg  -8.77242 -11.2887 -4.17713
RightLeg  12.2311 -13.8258 3.2207
RightFoot  -1.55018 0.281806 -3.41365
RightToes  0.000481921 0.542163 -0.142578
Spine  -4.28421 -3.67776 1.12049
Spine1  15.0605 -6.69539 10.2287
HEad  29.5383 -8.92333 7.91994
LeftShoulder1  9.86366 -13.616 -50.2979
LeftArm  4.45016 13.7132 -28.5097
LeftForeArm  36.6764 -24.492 -3.46656
LeftHand  -0.25398 0.0180481 5.50724
RightShoulder  4.57885 7.39199 36.0391
RightArm  -9.86672 -16.25 35.5505
RightForeArm  7.92732 10.5223 6.3252
RightHand  -1.67709 5.66646 -17.8566
LeftUpLeg  8.06948 11.9904 6.98825
LeftLeg  26.0724 2.48982 1.65762
LeftFoot  -1.03051 0.984075 -10.83
LeftToes  1.06246e-005 4.65868e-005 -8.65513e-006
106
root  28.1566 40.0284 -3.60961 1.09491 -82.9074 -2.24478
RightUpLeg  -8.55312 -11.31 -3.62198
RightLeg  13.6653 -14.3452 3.00599
RightFoot  -3.12411 0.214312 -3.27927
RightToes  0.000481921 0.542163 -0.142578
Spine  -4.09463 -3.28814 3.21163
Spine1  15.3314 -5.88555 9.17074
HEad  28.9374 -9.83815 7.53444
LeftShoulder1  9.94949 -13.6332 -50.6806
LeftArm  2.83362 15.0932 -28.0141
LeftForeArm  37.0166 -19.7621 -3.7533
LeftHand  -0.25398 0.0180481 5.50724
RightShoulder  4.67408 7.55138 36.2882
RightArm  -7.17603 -14.1149 34.7486
RightForeArm  6.872 11.4502 6.7406
RightHand  -1.78621 6.14024 -18.2349
LeftUpLeg  4.34636 10.4062 7.25741
LeftLeg  32.7799 3.63534 2.86258
LeftFoot  0.101743 0.983638 -9.79951
LeftToes  1.06246e-005 4.65868e-005 -8.65513e-006
107
root  27.6242 39.9876 -3.8051 2.27455 -82.6618 -3.49143
RightUpLeg  -7.9753 -11.3343 -3.29116
RightLeg  14.5263 -14.4258 2.91348
RightFoot  -4.35359 0.167241 -3.21773
RightToes  0.000481921 0.542163 -0.142578
Spine  -3.56147 -2.72194 4.81218
Spine1  15.5389 -4.87695 8.03354
HEad  28.5644 -10.8099 7.20235
LeftShoulder1  9.93762 -13.5953 -50.7313
LeftArm  -2.27675 16.5851 -27.5946
LeftForeArm  38.9123 -15.8537 -4.86399
LeftHand  -0.25398 0.0180481 5.50724
RightShoulder  4.7974 7.71448 36.7606
RightArm  -4.52599 -10.912 33.4447
RightForeArm  6.59959 11.5247 7.19771
RightHand  -1.8427 6.26292 -18.6032
LeftUpLeg  1.04861 9.38175 7.27062
LeftLeg  38.2001 4.40959 4.07515
LeftFoot  -0.372535 0.837016 -8.67429
LeftToes  1.06246e-005 4.65868e-005 -8.65513e-006
